<?xml version="1.0" encoding="UTF-8"?>
<svg version="1.1" xmlns="http://www.w3.org/2000/svg" width="32" height="32">
<path d="M0 0 C1.14984375 -0.00257812 2.2996875 -0.00515625 3.484375 -0.0078125 C5.28648438 0.00378906 5.28648438 0.00378906 7.125 0.015625 C8.32640625 0.00789062 9.5278125 0.00015625 10.765625 -0.0078125 C12.49039062 -0.00394531 12.49039062 -0.00394531 14.25 0 C15.83167969 0.00338379 15.83167969 0.00338379 17.4453125 0.00683594 C20.125 0.265625 20.125 0.265625 23.125 2.265625 C23.51318359 4.92358398 23.51318359 4.92358398 23.5234375 8.26171875 C23.52923828 10.05899414 23.52923828 10.05899414 23.53515625 11.89257812 C23.52355469 13.15005859 23.51195312 14.40753906 23.5 15.703125 C23.51160156 16.95673828 23.52320313 18.21035156 23.53515625 19.50195312 C23.53128906 20.70142578 23.52742188 21.90089844 23.5234375 23.13671875 C23.52005371 24.23943115 23.51666992 25.34214355 23.51318359 26.47827148 C23.125 29.265625 23.125 29.265625 21.96728516 31.1237793 C19.34453334 32.74935712 17.32264911 32.65420223 14.25 32.6640625 C13.10015625 32.66792969 11.9503125 32.67179687 10.765625 32.67578125 C9.56421875 32.66417969 8.3628125 32.65257812 7.125 32.640625 C5.92359375 32.65222656 4.7221875 32.66382813 3.484375 32.67578125 C1.75960938 32.66998047 1.75960938 32.66998047 0 32.6640625 C-1.05445313 32.66067871 -2.10890625 32.65729492 -3.1953125 32.65380859 C-5.875 32.265625 -5.875 32.265625 -7.71728516 31.1237793 C-9.39556674 28.4301055 -9.26374844 26.29419858 -9.2734375 23.13671875 C-9.27730469 21.93724609 -9.28117188 20.73777344 -9.28515625 19.50195312 C-9.27355469 18.24833984 -9.26195312 16.99472656 -9.25 15.703125 C-9.26160156 14.44564453 -9.27320313 13.18816406 -9.28515625 11.89257812 C-9.28128906 10.69439453 -9.27742187 9.49621094 -9.2734375 8.26171875 C-9.27005371 7.16013428 -9.26666992 6.0585498 -9.26318359 4.92358398 C-9.13508301 4.04645752 -9.00698242 3.16933105 -8.875 2.265625 C-5.42139557 -0.03677795 -4.07000616 0.00870723 0 0 Z " fill="#0C0C0C" transform="translate(8.875,-0.265625)"/>
<path d="M0 0 C1.65 0 3.3 0 5 0 C5.83819158 1.62249941 6.6704116 3.24808497 7.5 4.875 C7.9640625 5.77992187 8.428125 6.68484375 8.90625 7.6171875 C10 10 10 10 10 12 C10.66 12 11.32 12 12 12 C12.12375 11.05125 12.2475 10.1025 12.375 9.125 C13 6 13 6 15 4 C13.97137215 9.44567686 12.75385216 14.11817117 10 19 C7.08975798 16.49941082 5.83208836 13.80344623 4.3125 10.3125 C3.87550781 9.31863281 3.43851563 8.32476562 2.98828125 7.30078125 C2.66214844 6.54152344 2.33601562 5.78226563 2 5 C1.97274659 6.7290774 1.95349013 8.45828176 1.9375 10.1875 C1.92589844 11.15042969 1.91429687 12.11335938 1.90234375 13.10546875 C1.99513378 15.85576513 2.37888315 18.32479591 3 21 C2.01 21 1.02 21 0 21 C0 14.07 0 7.14 0 0 Z " fill="#E3E3E3" transform="translate(5,5)"/>
<path d="M0 0 C1.32 0 2.64 0 4 0 C4.33 6.93 4.66 13.86 5 21 C3.68 21 2.36 21 1 21 C0.63611825 17.87605066 0.28555397 14.75074918 -0.0625 11.625 C-0.16626953 10.73554688 -0.27003906 9.84609375 -0.37695312 8.9296875 C-0.47041016 8.07890625 -0.56386719 7.228125 -0.66015625 6.3515625 C-0.74918213 5.56604004 -0.83820801 4.78051758 -0.92993164 3.97119141 C-1 2 -1 2 0 0 Z " fill="#EDEDED" transform="translate(21,5)"/>
</svg>
